
<svg xmlns="http://www.w3.org/2000/svg" enable-background="new 0 0 50 50">
<path fill="rgba(0, 0, 0, 0.7)" d="M25,0C11.2,0,0,11.2,0,25s11.2,25,25,25s25-11.2,25-25S38.8,0,25,0z M26,38.8h-8.2V21.2c0-1.7-0.6-2.5-1.8-2.5
	c-1.2,0-1.7,0.8-1.7,2.5v17.6H6.1V20.9c0-3.1,0.9-5.6,2.8-7.5s4.4-2.8,7.5-2.8c3.1,0,5.5,0.9,7.1,2.7c1.6,1.8,2.5,4.5,2.5,7.9V38.8z
	 M41,23.1l0.6,1.1c1.1,2,1.7,3.9,1.7,5.7c0,2.7-1,4.9-2.9,6.8c-1.9,1.9-4.2,2.8-7,2.8c-1.3,0-2.6-0.3-3.9-0.9v-8
	c0.8,0.5,1.5,0.7,2.1,0.7c0.7,0,1.3-0.2,1.8-0.6c0.5-0.4,0.7-0.9,0.7-1.5c0-0.4-0.4-1.3-1.2-2.6c-1.2-2.2-1.8-4.3-1.8-6.5
	c0-2.6,0.9-4.8,2.8-6.7c1.8-1.9,4.1-2.8,6.6-2.8c1.1,0,2.2,0.2,3.3,0.6V19c-0.6-0.2-1-0.3-1.4-0.3c-0.6,0-1.2,0.2-1.6,0.7
	s-0.7,1-0.7,1.7C40.3,21.5,40.5,22.2,41,23.1z"/>
</svg>
